<!-- Generated by IcoMoon.io -->
<svg version="1.1" xmlns="http://www.w3.org/2000/svg" width="32" height="32" viewBox="0 0 32 32">
<title>paw-r</title>
<path fill="#800080" d="M31.19 11.537c-0.098-0.418-0.28-0.732-0.637-1.090-0.288-0.29-0.58-0.498-0.977-0.697-2.385-1.192-6.32-0.79-8.575 0.883-0.308 0.227-0.712 0.623-0.915 0.893-0.668 0.885-0.703 1.88-0.095 2.678 0.625 0.818 1.83 1.377 3.422 1.59 0.41 0.053 1.68 0.063 2.1 0.012 1.755-0.205 3.207-0.727 4.305-1.545 0.273-0.205 0.683-0.607 0.875-0.86 0.177-0.235 0.407-0.68 0.47-0.912 0.058-0.207 0.073-0.755 0.027-0.95zM30.685 21.365c-0.152-0.777-0.747-1.59-1.652-2.262-1.163-0.865-2.7-1.45-4.395-1.67-0.54-0.070-1.745-0.063-2.235 0.012-1.117 0.175-1.973 0.547-2.527 1.105-0.48 0.477-0.703 1.078-0.63 1.688 0.18 1.453 1.765 2.885 4.040 3.65 1.887 0.635 3.875 0.703 5.39 0.183 1.477-0.508 2.242-1.538 2.010-2.705zM22.525 5.237c-0.163-1.022-0.988-1.792-2.297-2.14-0.753-0.198-1.79-0.225-2.703-0.070-2.125 0.357-4.078 1.588-4.832 3.043-0.385 0.745-0.453 1.487-0.188 2.125 0.39 0.94 1.4 1.558 2.883 1.76 0.297 0.040 1.18 0.040 1.525-0.002 2.755-0.325 5.172-2.022 5.575-3.91 0.047-0.223 0.065-0.617 0.038-0.805zM20.5 26.425c-0.192-0.9-0.825-1.782-1.805-2.515-1.065-0.795-2.455-1.33-3.855-1.485-0.365-0.040-1.15-0.032-1.502 0.012-2.37 0.305-3.508 1.915-2.647 3.738 0.463 0.977 1.415 1.863 2.683 2.495 2.4 1.2 5.212 1.122 6.515-0.183 0.55-0.55 0.775-1.308 0.613-2.063zM16.052 15.563c-0.295-1.655-2.033-3.742-4.652-5.593-2.053-1.447-4.263-2.467-6.013-2.772-0.42-0.072-1.17-0.080-1.458-0.015-0.448 0.103-0.743 0.275-1.055 0.61-0.518 0.56-0.822 1.232-0.94 2.075-0.060 0.438-0.038 1.322 0.048 1.885 0.117 0.752 0.27 1.387 0.68 2.81 0.395 1.375 0.478 1.76 0.453 2.14-0.033 0.483-0.15 0.845-0.607 1.885-0.328 0.745-0.482 1.16-0.57 1.515-0.32 1.325 0.098 2.44 1.342 3.587 0.37 0.343 0.55 0.448 0.942 0.555 0.225 0.060 0.275 0.065 0.803 0.065 0.478 0 0.612-0.008 0.888-0.058 1.667-0.295 3.683-1.172 5.6-2.44 2.28-1.508 3.922-3.277 4.41-4.755 0.177-0.538 0.218-0.995 0.13-1.495z"></path>
</svg>
