<!-- Generated by IcoMoon.io -->
<svg version="1.1" xmlns="http://www.w3.org/2000/svg" width="32" height="32" viewBox="0 0 32 32">
<title>fast-r</title>
<path fill="#ff6b09" d="M31.726 15.287l-9.599-10.666c-0.205-0.226-0.491-0.354-0.794-0.354h-6.4c-0.42 0-0.802 0.247-0.975 0.631-0.171 0.386-0.1 0.836 0.181 1.148l8.957 9.954-8.957 9.951c-0.282 0.314-0.354 0.764-0.181 1.148 0.173 0.386 0.555 0.634 0.975 0.634h6.4c0.303 0 0.589-0.13 0.794-0.352l9.599-10.666c0.365-0.405 0.365-1.024 0-1.427z"></path>
<path fill="#ff6b09" d="M17.86 15.287l-9.599-10.666c-0.205-0.226-0.491-0.354-0.794-0.354h-6.4c-0.42 0-0.802 0.247-0.975 0.631-0.171 0.386-0.1 0.836 0.181 1.148l8.957 9.954-8.957 9.951c-0.282 0.314-0.354 0.764-0.181 1.148 0.173 0.386 0.555 0.634 0.975 0.634h6.4c0.303 0 0.589-0.13 0.794-0.352l9.599-10.666c0.365-0.405 0.365-1.024 0-1.427z"></path>
</svg>
