<!-- Generated by IcoMoon.io -->
<svg version="1.1" xmlns="http://www.w3.org/2000/svg" width="32" height="32" viewBox="0 0 32 32">
<title>left-i</title>
<path fill="#ff6b09" d="M12.918 16.007l11.971-11.972c0.33-0.329 0.511-0.769 0.511-1.237s-0.181-0.909-0.511-1.238l-1.049-1.048c-0.329-0.33-0.769-0.511-1.238-0.511s-0.908 0.182-1.238 0.511l-14.254 14.253c-0.331 0.33-0.512 0.772-0.51 1.241-0.001 0.471 0.179 0.912 0.51 1.243l14.24 14.239c0.329 0.33 0.769 0.511 1.238 0.511s0.908-0.182 1.238-0.511l1.049-1.048c0.682-0.682 0.682-1.793 0-2.475l-11.958-11.958z"></path>
</svg>
