<!-- Generated by IcoMoon.io -->
<svg version="1.1" xmlns="http://www.w3.org/2000/svg" width="32" height="32" viewBox="0 0 32 32">
<title>paw-l</title>
<path fill="#800080" d="M0.81 20.462c0.098 0.418 0.28 0.733 0.637 1.090 0.287 0.29 0.58 0.497 0.977 0.698 2.385 1.192 6.32 0.79 8.575-0.883 0.307-0.227 0.713-0.622 0.915-0.892 0.668-0.885 0.703-1.88 0.095-2.678-0.625-0.817-1.83-1.378-3.422-1.59-0.41-0.052-1.68-0.063-2.1-0.012-1.755 0.205-3.208 0.727-4.305 1.545-0.272 0.205-0.683 0.608-0.875 0.86-0.177 0.235-0.407 0.68-0.47 0.913-0.057 0.207-0.073 0.755-0.027 0.95zM1.315 10.635c0.153 0.777 0.748 1.59 1.653 2.263 1.163 0.865 2.7 1.45 4.395 1.67 0.54 0.070 1.745 0.063 2.235-0.012 1.117-0.175 1.973-0.547 2.527-1.105 0.48-0.477 0.703-1.078 0.63-1.688-0.18-1.453-1.765-2.885-4.040-3.65-1.888-0.635-3.875-0.702-5.39-0.183-1.478 0.507-2.243 1.538-2.010 2.705zM9.475 26.762c0.162 1.023 0.988 1.793 2.297 2.14 0.752 0.198 1.79 0.225 2.703 0.070 2.125-0.358 4.077-1.587 4.832-3.043 0.385-0.745 0.453-1.488 0.188-2.125-0.39-0.94-1.4-1.558-2.883-1.76-0.297-0.040-1.18-0.040-1.525 0.003-2.755 0.325-5.173 2.023-5.575 3.91-0.047 0.223-0.065 0.617-0.037 0.805zM11.5 5.575c0.193 0.9 0.825 1.782 1.805 2.515 1.065 0.795 2.455 1.33 3.855 1.485 0.365 0.040 1.15 0.033 1.503-0.012 2.37-0.305 3.508-1.915 2.648-3.737-0.462-0.978-1.415-1.862-2.683-2.495-2.4-1.2-5.213-1.123-6.515 0.183-0.55 0.55-0.775 1.308-0.613 2.063zM15.947 16.438c0.295 1.655 2.033 3.742 4.653 5.593 2.053 1.448 4.262 2.468 6.012 2.773 0.42 0.073 1.17 0.080 1.457 0.015 0.448-0.102 0.742-0.275 1.055-0.61 0.517-0.56 0.823-1.233 0.94-2.075 0.060-0.438 0.038-1.323-0.047-1.885-0.117-0.753-0.27-1.387-0.68-2.81-0.395-1.375-0.477-1.76-0.453-2.14 0.032-0.482 0.15-0.845 0.608-1.885 0.328-0.745 0.483-1.16 0.57-1.515 0.32-1.325-0.098-2.44-1.343-3.588-0.37-0.343-0.55-0.447-0.942-0.555-0.225-0.060-0.275-0.065-0.802-0.065-0.477 0-0.613 0.008-0.887 0.058-1.668 0.295-3.683 1.172-5.6 2.44-2.28 1.508-3.922 3.277-4.41 4.755-0.178 0.537-0.217 0.995-0.13 1.495z"></path>
</svg>
