<svg aria-hidden="true" style="position: absolute; width: 0; height: 0; overflow: hidden;" version="1.1" xmlns="http://www.w3.org/2000/svg" xmlns:xlink="http://www.w3.org/1999/xlink">
<defs>
<symbol id="icon-vk" viewBox="0 0 53 32">
<path d="M45.901 20.1c1.769 1.727 3.636 3.352 5.223 5.254 0.701 0.845 1.364 1.717 1.872 2.698 0.719 1.394 0.068 2.928-1.182 3.011l-7.77-0.004c-2.004 0.166-3.603-0.64-4.947-2.011-1.076-1.096-2.072-2.262-3.106-3.395-0.424-0.463-0.868-0.898-1.398-1.243-1.061-0.689-1.981-0.478-2.587 0.628-0.617 1.125-0.758 2.371-0.818 3.625-0.083 1.829-0.636 2.311-2.474 2.394-3.928 0.185-7.655-0.409-11.118-2.39-3.053-1.747-5.42-4.213-7.481-7.004-4.012-5.436-7.084-11.409-9.845-17.549-0.622-1.383-0.167-2.126 1.359-2.152 2.535-0.049 5.069-0.046 7.607-0.004 1.030 0.015 1.712 0.606 2.11 1.579 1.371 3.372 3.049 6.58 5.156 9.554 0.561 0.792 1.133 1.583 1.947 2.141 0.901 0.617 1.587 0.412 2.011-0.591 0.269-0.636 0.387-1.322 0.447-2.004 0.201-2.345 0.227-4.686-0.125-7.023-0.216-1.458-1.038-2.403-2.493-2.679-0.743-0.141-0.632-0.417-0.273-0.841 0.625-0.731 1.212-1.186 2.383-1.186h8.781c1.382 0.273 1.689 0.894 1.879 2.285l0.007 9.754c-0.015 0.538 0.269 2.136 1.239 2.493 0.776 0.254 1.288-0.367 1.754-0.86 2.102-2.231 3.603-4.868 4.943-7.599 0.595-1.201 1.106-2.448 1.602-3.694 0.367-0.924 0.944-1.379 1.985-1.359l8.451 0.008c0.251 0 0.504 0.004 0.747 0.045 1.424 0.243 1.814 0.855 1.375 2.246-0.693 2.182-2.041 4-3.36 5.827-1.409 1.95-2.917 3.834-4.314 5.795-1.284 1.792-1.182 2.695 0.413 4.251z"></path>
</symbol>
</defs>
<symbol id="github" viewBox="0 0 32 32">
<path d="M16 0.395c-8.836 0-16 7.163-16 16 0 7.069 4.585 13.067 10.942 15.182 0.8 0.148 1.094-0.347 1.094-0.77 0-0.381-0.015-1.642-0.022-2.979-4.452 0.968-5.391-1.888-5.391-1.888-0.728-1.849-1.776-2.341-1.776-2.341-1.452-0.993 0.11-0.973 0.11-0.973 1.606 0.113 2.452 1.649 2.452 1.649 1.427 2.446 3.743 1.739 4.656 1.33 0.143-1.034 0.558-1.74 1.016-2.14-3.554-0.404-7.29-1.777-7.29-7.907 0-1.747 0.625-3.174 1.649-4.295-0.166-0.403-0.714-2.030 0.155-4.234 0 0 1.344-0.43 4.401 1.64 1.276-0.355 2.645-0.532 4.005-0.539 1.359 0.006 2.729 0.184 4.008 0.539 3.054-2.070 4.395-1.64 4.395-1.64 0.871 2.204 0.323 3.831 0.157 4.234 1.026 1.12 1.647 2.548 1.647 4.295 0 6.145-3.743 7.498-7.306 7.895 0.574 0.497 1.085 1.47 1.085 2.963 0 2.141-0.019 3.864-0.019 4.391 0 0.426 0.288 0.925 1.099 0.768 6.354-2.118 10.933-8.113 10.933-15.18 0-8.837-7.164-16-16-16z"></path>
</symbol>
</svg>
