<?xml version="1.0" standalone="no"?>
<!DOCTYPE svg PUBLIC "-//W3C//DTD SVG 20010904//EN"
 "http://www.w3.org/TR/2001/REC-SVG-20010904/DTD/svg10.dtd">
<svg version="1.0" xmlns="http://www.w3.org/2000/svg" viewBox="0 0 337.000000 345.000000"
 preserveAspectRatio="xMidYMid meet">

<g transform="translate(0.000000,345.000000) scale(0.100000,-0.100000)"
fill="#800080" stroke="none">
<path d="M1140 3367 c-84 -27 -180 -164 -217 -313 -27 -109 -24 -362 6 -478
49 -187 139 -347 239 -423 182 -138 380 -26 451 257 56 223 27 477 -80 697
-101 210 -251 307 -399 260z"/>
<path d="M2182 3289 c-138 -68 -271 -265 -328 -484 -34 -130 -44 -334 -20
-443 29 -139 104 -251 192 -288 79 -33 188 -8 278 65 102 82 203 255 252 431
35 127 45 341 20 451 -56 251 -213 359 -394 268z"/>
<path d="M425 2404 c-52 -19 -120 -86 -150 -149 -119 -243 -28 -642 193 -847
77 -71 139 -101 224 -106 82 -5 124 8 180 57 157 138 169 479 28 751 -123 234
-314 353 -475 294z"/>
<path d="M2783 2186 c-256 -83 -464 -509 -399 -814 40 -192 132 -287 276 -287
162 0 334 152 428 378 52 124 64 194 60 352 -3 133 -5 143 -34 206 -34 70 -84
128 -136 155 -43 22 -143 27 -195 10z"/>
<path d="M1580 1694 c-262 -70 -621 -474 -805 -904 -85 -199 -110 -390 -62
-481 47 -89 170 -155 306 -166 110 -8 224 10 454 74 277 76 280 76 522 -28 97
-42 103 -43 210 -44 104 0 113 2 164 30 78 43 174 140 196 197 27 74 17 223
-25 353 -70 218 -233 503 -392 685 -128 146 -260 244 -376 280 -75 23 -117 24
-192 4z"/>
</g>
</svg>
